<svg width="18" height="18" viewBox="0 0 18 18" fill="none" xmlns="http://www.w3.org/2000/svg">
<g clip-path="url(#clip0_225_834)">
<path d="M6.826 17.735V11.75H4.97V9H6.826V7.815C6.826 4.751 8.212 3.331 11.219 3.331C11.52 3.331 11.936 3.363 12.32 3.409C12.608 3.438 12.894 3.487 13.176 3.555V6.049C13.013 6.034 12.85 6.025 12.686 6.022C12.503 6.017 12.32 6.015 12.137 6.015C11.606 6.015 11.192 6.087 10.88 6.247C10.671 6.352 10.494 6.514 10.371 6.713C10.178 7.028 10.09 7.46 10.09 8.027V9H13.03L12.74 10.577L12.525 11.75H10.09V17.934C14.547 17.395 18 13.601 18 9C18 4.03 13.97 0 9 0C4.03 0 0 4.03 0 9C0 13.221 2.906 16.763 6.826 17.735Z" fill="black"/>
</g>
<defs>
<clipPath id="clip0_225_834">
<rect width="18" height="18" fill="white"/>
</clipPath>
</defs>
</svg>
