<svg width="18" height="18" viewBox="0 0 18 18" fill="none" xmlns="http://www.w3.org/2000/svg">
<path d="M13.927 13.93H11.854V10.682C11.854 9.907 11.839 8.91 10.774 8.91C9.693 8.91 9.528 9.753 9.528 10.625V13.93H7.455V7.25H9.446V8.161H9.473C9.751 7.636 10.428 7.081 11.439 7.081C13.54 7.081 13.928 8.464 13.928 10.264V13.93H13.927ZM5.113 6.336C4.794 6.336 4.487 6.209 4.262 5.983C4.036 5.757 3.909 5.451 3.91 5.131C3.91 4.466 4.449 3.928 5.114 3.928C5.779 3.928 6.318 4.468 6.318 5.133C6.318 5.797 5.778 6.336 5.113 6.336ZM6.153 13.93H4.074V7.25H6.153V13.93ZM14.965 2H3.033C2.462 2 2 2.452 2 3.009V14.991C2 15.549 2.462 16 3.033 16H14.963C15.533 16 16 15.549 16 14.991V3.009C16 2.452 15.533 2 14.963 2H14.965Z" fill="black"/>
</svg>
