<svg width="30" height="32" viewBox="0 0 30 32" fill="none" xmlns="http://www.w3.org/2000/svg">
<path d="M0 0H30V7.30833H26.6667V3.33333H3.33333V18.3333H10.555V21.6667H0V0Z" fill="black"/>
<path d="M16.1399 12.1449C17.5966 13.6866 18.8383 14.9999 21.6666 14.9999H24.9999C25.884 14.9999 26.7318 15.3511 27.357 15.9762C27.9821 16.6014 28.3333 17.4492 28.3333 18.3333V19.9999C28.3333 20.585 28.1792 21.1598 27.8867 21.6665C27.5941 22.1733 27.1733 22.594 26.6666 22.8866V31.6666H21.6666V18.3333C17.3049 18.3333 15.0733 15.9166 13.5999 14.3249C13.4002 14.1055 13.1963 13.8899 12.9883 13.6783L15.3449 11.3216C15.6216 11.5994 15.8866 11.8738 16.1399 12.1449ZM26.6666 10.8333C26.6666 11.4963 26.4032 12.1322 25.9344 12.601C25.4655 13.0699 24.8297 13.3333 24.1666 13.3333C23.5036 13.3333 22.8677 13.0699 22.3988 12.601C21.93 12.1322 21.6666 11.4963 21.6666 10.8333C21.6666 10.1702 21.93 9.53433 22.3988 9.06548C22.8677 8.59664 23.5036 8.33325 24.1666 8.33325C24.8297 8.33325 25.4655 8.59664 25.9344 9.06548C26.4032 9.53433 26.6666 10.1702 26.6666 10.8333Z" fill="black"/>
</svg>
