<svg width="40" height="40" viewBox="0 0 40 40" fill="none" xmlns="http://www.w3.org/2000/svg">
<path d="M19.5168 26.5C19.9588 26.5 20.3827 26.3244 20.6953 26.0118C21.0078 25.6993 21.1834 25.2754 21.1834 24.8333C21.1834 24.3913 21.0078 23.9674 20.6953 23.6548C20.3827 23.3423 19.9588 23.1667 19.5168 23.1667H13.9167C13.8307 23.169 13.746 23.1446 13.6744 23.0968C13.6028 23.0491 13.5477 22.9803 13.5167 22.9C13.0173 21.5348 12.6599 20.1218 12.4501 18.6833C12.4281 18.6305 12.4167 18.5739 12.4167 18.5167C12.4167 18.4595 12.4281 18.4028 12.4501 18.35C12.4888 18.3035 12.5372 18.266 12.5919 18.2401C12.6466 18.2142 12.7062 18.2005 12.7667 18.2H20.2667C20.7088 18.2 21.1327 18.0244 21.4453 17.7118C21.7578 17.3993 21.9334 16.9754 21.9334 16.5333C21.9334 16.0913 21.7578 15.6674 21.4453 15.3548C21.1327 15.0423 20.7088 14.8667 20.2667 14.8667H12.7001C12.6433 14.868 12.587 14.8568 12.5351 14.8337C12.4832 14.8107 12.4371 14.7764 12.4001 14.7333C12.3578 14.693 12.3252 14.6434 12.305 14.5885C12.2848 14.5336 12.2774 14.4749 12.2834 14.4167C12.397 12.9644 12.688 11.5315 13.1501 10.15C13.1891 10.0953 13.2424 10.0525 13.3041 10.026C13.3658 9.99955 13.4336 9.99056 13.5001 10H20.5501C20.6381 9.99889 20.7243 10.0257 20.7962 10.0766C20.868 10.1275 20.9219 10.1999 20.9501 10.2833C21.309 11.3681 21.5656 12.4841 21.7167 13.6167C21.7734 14.0171 21.9736 14.3833 22.2803 14.6471C22.5869 14.9108 22.979 15.054 23.3834 15.05H23.6001C23.8287 15.0187 24.0484 14.9402 24.2451 14.8196C24.4419 14.699 24.6115 14.5388 24.7431 14.3492C24.8747 14.1596 24.9655 13.9448 25.0097 13.7182C25.054 13.4917 25.0507 13.2585 25.0001 13.0333C24.8804 12.1625 24.7079 11.2998 24.4834 10.45C24.4789 10.3939 24.4857 10.3375 24.5036 10.2842C24.5215 10.2308 24.5499 10.1816 24.5873 10.1396C24.6247 10.0975 24.6702 10.0635 24.7211 10.0395C24.772 10.0155 24.8272 10.0021 24.8834 10H28.2168C28.2917 9.9998 28.3653 10.0198 28.4299 10.0579C28.4944 10.0961 28.5474 10.1509 28.5834 10.2167C29.0828 11.0707 29.4747 11.9831 29.7501 12.9333C29.8705 13.357 30.1537 13.7158 30.5378 13.9313C30.922 14.1467 31.3758 14.2014 31.8001 14.0833C32.2207 13.9594 32.5755 13.6747 32.7876 13.291C32.9998 12.9073 33.0521 12.4554 32.9334 12.0333C31.9538 8.58958 29.8849 5.55587 27.0365 3.38655C24.1882 1.21724 20.7137 0.029068 17.1334 0C5.46675 0 0.466748 8.33333 0.466748 16.6667C0.394331 18.8521 0.772538 21.0291 1.57783 23.0621C2.38311 25.0951 3.59825 26.9406 5.14758 28.4837C6.69692 30.0268 8.54729 31.2344 10.5835 32.0315C12.6198 32.8285 14.7983 33.1979 16.9834 33.1167C17.4254 33.1167 17.8494 32.9411 18.1619 32.6285C18.4745 32.316 18.6501 31.892 18.6501 31.45C18.6419 31.093 18.5192 30.748 18.3002 30.466C18.0812 30.1839 17.7773 29.9797 17.4334 29.8833C17.389 29.8744 17.3469 29.8564 17.3096 29.8307C17.2724 29.8049 17.2408 29.7717 17.2167 29.7333C16.6159 28.885 16.0596 28.0061 15.5501 27.1C15.5178 27.0353 15.501 26.964 15.501 26.8917C15.501 26.8194 15.5178 26.748 15.5501 26.6833C15.5894 26.6218 15.6436 26.5712 15.7077 26.5362C15.7718 26.5013 15.8437 26.4831 15.9167 26.4833L19.5168 26.5ZM10.0001 22.65C10.028 22.7071 10.0426 22.7698 10.0426 22.8333C10.0426 22.8969 10.028 22.9596 10.0001 23.0167C9.96042 23.0675 9.90991 23.1088 9.85225 23.1377C9.79458 23.1665 9.73121 23.1821 9.66675 23.1833H5.90008C5.82718 23.1842 5.75553 23.1643 5.69353 23.126C5.63154 23.0876 5.58178 23.0323 5.55008 22.9667C4.80498 21.6397 4.28674 20.1977 4.01675 18.7C4.0084 18.6405 4.01302 18.5799 4.03028 18.5224C4.04754 18.4649 4.07704 18.4117 4.11675 18.3667C4.15282 18.3172 4.20069 18.2776 4.256 18.2514C4.31132 18.2252 4.37231 18.2133 4.43342 18.2167H8.70008C8.80064 18.2163 8.89764 18.2539 8.97176 18.3218C9.04589 18.3898 9.0917 18.4831 9.10008 18.5833C9.28167 19.9624 9.5828 21.3231 10.0001 22.65ZM9.00008 14.5167C8.99169 14.6213 8.94411 14.7189 8.86686 14.79C8.78961 14.861 8.68838 14.9003 8.58342 14.9H4.31675C4.19771 14.8992 4.08385 14.8512 4.00008 14.7667C3.96037 14.7216 3.93088 14.6685 3.91361 14.6109C3.89635 14.5534 3.89174 14.4928 3.90008 14.4333C4.10525 12.9352 4.57356 11.4851 5.28342 10.15C5.32728 10.0965 5.38377 10.0548 5.44778 10.0286C5.51179 10.0024 5.58132 9.99261 5.65008 10H9.21675C9.27885 10.0013 9.3398 10.017 9.39476 10.0459C9.44972 10.0749 9.4972 10.1162 9.53342 10.1667C9.5612 10.2208 9.57569 10.2808 9.57569 10.3417C9.57569 10.4025 9.5612 10.4625 9.53342 10.5167C9.22101 11.829 9.03681 13.1687 8.98342 14.5167H9.00008ZM9.25008 6.66667C9.16488 6.66432 9.08244 6.6359 9.0139 6.58523C8.94535 6.53457 8.89399 6.4641 8.86675 6.38333C8.83644 6.29993 8.83474 6.20881 8.86189 6.12433C8.88905 6.03985 8.94352 5.96679 9.01675 5.91667C9.72194 5.40534 10.4755 4.96434 11.2667 4.6C11.3479 4.5655 11.4377 4.55659 11.524 4.57446C11.6104 4.59233 11.6893 4.63613 11.7501 4.7C11.7981 4.77145 11.8237 4.85558 11.8237 4.94167C11.8237 5.02775 11.7981 5.11188 11.7501 5.18333C11.5167 5.60556 11.3001 6.02222 11.1001 6.43333C11.0705 6.49849 11.0239 6.55451 10.9653 6.59555C10.9067 6.63659 10.8381 6.66115 10.7667 6.66667H9.25008ZM15.5168 6.66667C15.4433 6.66563 15.3714 6.64519 15.3084 6.60742C15.2454 6.56964 15.1935 6.51588 15.1579 6.45158C15.1224 6.38728 15.1045 6.31472 15.1061 6.24127C15.1076 6.16782 15.1285 6.09608 15.1667 6.03333C15.6245 5.27205 16.1253 4.53752 16.6667 3.83333C16.7073 3.78464 16.7583 3.74582 16.8161 3.71983C16.8738 3.69384 16.9368 3.68136 17.0001 3.68333C17.0606 3.68384 17.1203 3.69752 17.1749 3.72343C17.2296 3.74933 17.278 3.78684 17.3167 3.83333C17.8861 4.51444 18.4095 5.23269 18.8834 5.98333C18.9236 6.04539 18.945 6.11774 18.945 6.19167C18.945 6.26559 18.9236 6.33794 18.8834 6.4C18.8474 6.46576 18.7944 6.52059 18.7299 6.55872C18.6653 6.59685 18.5917 6.61687 18.5167 6.61667L15.5168 6.66667ZM22.3834 5.35C22.3318 5.27687 22.304 5.18953 22.304 5.1C22.304 5.01047 22.3318 4.92313 22.3834 4.85C22.453 4.79728 22.5378 4.76874 22.6251 4.76874C22.7123 4.76874 22.7972 4.79728 22.8668 4.85C23.5252 5.18064 24.1552 5.56529 24.7501 6C24.82 6.05247 24.8717 6.12562 24.8978 6.2091C24.9239 6.29257 24.923 6.38213 24.8954 6.4651C24.8677 6.54806 24.8147 6.62022 24.7437 6.67135C24.6728 6.72248 24.5875 6.75 24.5001 6.75H23.3334C23.2563 6.75059 23.1807 6.72887 23.1156 6.68748C23.0506 6.64608 22.9989 6.58676 22.9667 6.51667C22.7834 6.01667 22.5834 5.66667 22.3834 5.3V5.35ZM12.2834 28.1C12.3361 28.1695 12.3647 28.2544 12.3647 28.3417C12.3647 28.4289 12.3361 28.5138 12.2834 28.5833C12.2284 28.6503 12.1523 28.6967 12.0675 28.7148C11.9828 28.733 11.8944 28.7219 11.8167 28.6833C10.9476 28.3014 10.1255 27.8205 9.36675 27.25C9.29352 27.1999 9.23905 27.1268 9.21189 27.0423C9.18474 26.9579 9.18645 26.8667 9.21675 26.7833C9.24492 26.6999 9.29881 26.6275 9.37068 26.5766C9.44254 26.5257 9.52869 26.4989 9.61675 26.5H11.2834C11.3605 26.4994 11.4362 26.5211 11.5012 26.5625C11.5663 26.6039 11.618 26.6632 11.6501 26.7333C11.8001 27.1833 12.0334 27.65 12.2834 28.1Z" fill="black"/>
<path d="M34.1504 30.5666C34.0919 30.5268 34.0441 30.4734 34.011 30.4109C33.978 30.3485 33.9607 30.2789 33.9607 30.2082C33.9607 30.1376 33.978 30.068 34.011 30.0055C34.0441 29.9431 34.0919 29.8896 34.1504 29.8499C35.4267 28.9506 36.3835 27.6683 36.8821 26.1888C37.3807 24.7093 37.3953 23.1094 36.9236 21.621C36.452 20.1327 35.5186 18.8332 34.2588 17.9109C32.9991 16.9886 31.4783 16.4915 29.917 16.4915C28.3557 16.4915 26.835 16.9886 25.5752 17.9109C24.3155 18.8332 23.3821 20.1327 22.9104 21.621C22.4388 23.1094 22.4533 24.7093 22.9519 26.1888C23.4506 27.6683 24.4074 28.9506 25.6837 29.8499C25.7459 29.8868 25.7974 29.9392 25.8332 30.0021C25.8689 30.0649 25.8877 30.1359 25.8877 30.2082C25.8877 30.2805 25.8689 30.3516 25.8332 30.4144C25.7974 30.4772 25.7459 30.5297 25.6837 30.5666C24.1096 31.3684 22.7878 32.5897 21.8643 34.0956C20.9408 35.6015 20.4514 37.3334 20.4504 39.0999C20.4481 39.2085 20.4676 39.3165 20.5077 39.4175C20.5477 39.5186 20.6075 39.6106 20.6836 39.6882C20.7596 39.7658 20.8504 39.8274 20.9506 39.8695C21.0508 39.9116 21.1584 39.9333 21.267 39.9332H38.7004C38.9214 39.9332 39.1333 39.8454 39.2896 39.6892C39.4459 39.5329 39.5337 39.3209 39.5337 39.0999C39.5168 37.3181 39.0042 35.5761 38.0535 34.069C37.1027 32.5619 35.7512 31.3492 34.1504 30.5666ZM29.0504 36.4332V33.9499C29.0504 33.6228 29.1803 33.3091 29.4116 33.0778C29.6429 32.8465 29.9566 32.7166 30.2837 32.7166C30.6124 32.7165 30.9278 32.8459 31.1617 33.0768C31.3957 33.3076 31.5293 33.6213 31.5337 33.9499V36.4332C31.5294 36.7634 31.3963 37.0789 31.1628 37.3123C30.9293 37.5458 30.6139 37.6789 30.2837 37.6832C29.9551 37.6789 29.6414 37.5452 29.4106 37.3113C29.1797 37.0773 29.0503 36.7619 29.0504 36.4332ZM26.0004 22.6166C26.0239 22.558 26.06 22.5053 26.106 22.4621C26.1521 22.4189 26.2071 22.3863 26.267 22.3666C26.3222 22.3422 26.3818 22.3297 26.442 22.3297C26.5023 22.3297 26.5619 22.3422 26.617 22.3666C28.1396 23.3417 29.9089 23.8621 31.717 23.8666C32.3553 23.8607 32.9915 23.7937 33.617 23.6666C33.6432 23.6546 33.6716 23.6484 33.7004 23.6484C33.7291 23.6484 33.7576 23.6546 33.7837 23.6666C33.8083 23.6871 33.8284 23.7125 33.8427 23.7412C33.8571 23.7699 33.8653 23.8012 33.867 23.8332C33.801 24.8603 33.3465 25.8237 32.5958 26.5277C31.8451 27.2317 30.8545 27.6236 29.8254 27.6236C28.7962 27.6236 27.8056 27.2317 27.0549 26.5277C26.3042 25.8237 25.8497 24.8603 25.7837 23.8332C25.7974 23.4194 25.8704 23.0097 26.0004 22.6166Z" fill="black"/>
</svg>
