<svg width="39" height="39" viewBox="0 0 39 39" fill="none" xmlns="http://www.w3.org/2000/svg">
<path d="M12.6667 17.6667C14.8768 17.6667 16.9964 16.7887 18.5592 15.2259C20.122 13.6631 21 11.5435 21 9.33333C21 7.1232 20.122 5.00358 18.5592 3.44078C16.9964 1.87797 14.8768 1 12.6667 1C10.4565 1 8.33691 1.87797 6.77411 3.44078C5.21131 5.00358 4.33333 7.1232 4.33333 9.33333C4.33333 11.5435 5.21131 13.6631 6.77411 15.2259C8.33691 16.7887 10.4565 17.6667 12.6667 17.6667ZM12.6667 17.6667C16.0217 17.6667 18.9533 18.9333 21.0383 21.0383C22.2745 22.2916 23.1993 23.8175 23.7383 25.4933M12.6667 17.6667C6 17.6667 1 22.6667 1 29.3333V37.6667H17.6667M19.3333 30.7067L26.3167 36L37.6667 21" stroke="black" stroke-width="2"/>
</svg>
