<svg width="24" height="24" viewBox="0 0 24 24" fill="none" xmlns="http://www.w3.org/2000/svg">
<path fill-rule="evenodd" clip-rule="evenodd" d="M9.567 5.24998C9.61088 5.17397 9.674 5.11086 9.75001 5.06698C9.82602 5.0231 9.91223 5 10 5C10.0878 5 10.174 5.0231 10.25 5.06698C10.326 5.11086 10.3891 5.17397 10.433 5.24998L12.943 9.60148C12.6924 10.2287 12.5873 10.9046 12.6356 11.5783C12.6839 12.252 12.8843 12.906 13.2217 13.4911C13.5592 14.0761 14.025 14.5771 14.5839 14.9562C15.1429 15.3354 15.7806 15.5828 16.449 15.68L17.9315 18.251C17.9754 18.327 17.9985 18.4133 17.9985 18.5011C17.9985 18.5889 17.9753 18.6752 17.9314 18.7512C17.8874 18.8272 17.8242 18.8903 17.7482 18.9342C17.6721 18.978 17.5858 19.0011 17.498 19.001H2.5015C2.41373 19.001 2.32751 18.9779 2.2515 18.934C2.17549 18.8901 2.11238 18.827 2.06849 18.751C2.02461 18.675 2.00151 18.5887 2.00151 18.501C2.00151 18.4132 2.02461 18.327 2.0685 18.251L9.567 5.24998ZM9.3745 16.275V15.025H10.6255V16.275H9.3745ZM10 10.0225C9.655 10.0225 9.375 10.3025 9.375 10.6475V13.3975C9.375 13.5634 9.4409 13.7225 9.5582 13.8398C9.67551 13.9571 9.8346 14.023 10.0005 14.023C10.1664 14.023 10.3255 13.9571 10.4428 13.8398C10.5601 13.7225 10.626 13.5634 10.626 13.3975V10.6475C10.626 10.3025 10.3455 10.0225 10 10.0225Z" fill="white"/>
<path fill-rule="evenodd" clip-rule="evenodd" d="M13.625 11.2326C13.626 11.0959 13.6348 10.9617 13.6515 10.8301C13.7158 10.3125 13.896 9.81619 14.1787 9.37796C14.4613 8.93972 14.8392 8.57089 15.2842 8.29892C15.7292 8.02696 16.2297 7.85886 16.7487 7.80713C17.2676 7.75541 17.7915 7.82141 18.2814 8.0002C18.7713 8.17899 19.2145 8.46598 19.5781 8.8398C19.9417 9.21362 20.2164 9.66464 20.3815 10.1593C20.5467 10.6539 20.5982 11.1795 20.5321 11.6968C20.4661 12.2141 20.2842 12.7098 20 13.1471L22.002 15.1491L21.248 15.9036L19.287 13.9426C18.6684 14.4504 17.8924 14.7274 17.092 14.7261C16.6279 14.7269 16.1684 14.634 15.741 14.4531C15.3166 14.2728 14.9323 14.0101 14.6103 13.68C14.2883 13.35 14.0352 12.9593 13.8655 12.5306C13.7059 12.1258 13.6243 11.6946 13.625 11.2596V11.2326ZM17.0915 13.6596C17.4067 13.6596 17.7188 13.5975 18.0099 13.4769C18.3011 13.3563 18.5657 13.1795 18.7886 12.9566C19.0114 12.7338 19.1882 12.4692 19.3088 12.178C19.4294 11.8868 19.4915 11.5747 19.4915 11.2596C19.4915 10.9444 19.4294 10.6323 19.3088 10.3411C19.1882 10.0499 19.0114 9.78536 18.7886 9.5625C18.5657 9.33964 18.3011 9.16286 18.0099 9.04225C17.7188 8.92164 17.4067 8.85956 17.0915 8.85956C16.455 8.85956 15.8445 9.11242 15.3944 9.5625C14.9444 10.0126 14.6915 10.623 14.6915 11.2596C14.6915 11.8961 14.9444 12.5065 15.3944 12.9566C15.8445 13.4067 16.455 13.6596 17.0915 13.6596Z" fill="white"/>
</svg>
